<?xml version="1.0" standalone="no"?>
<!DOCTYPE svg PUBLIC "-//W3C//DTD SVG 20010904//EN"
 "http://www.w3.org/TR/2001/REC-SVG-20010904/DTD/svg10.dtd">
<svg version="1.0" xmlns="http://www.w3.org/2000/svg"
 width="300.000000pt" height="300.000000pt" viewBox="0 0 300.000000 300.000000"
 preserveAspectRatio="xMidYMid meet">

<g transform="translate(0.000000,300.000000) scale(0.100000,-0.100000)"
fill="#000000" stroke="none">
<path d="M0 1500 l0 -1500 1500 0 1500 0 0 1500 0 1500 -1500 0 -1500 0 0
-1500z m2260 807 c0 -29 -3 -33 -30 -35 -28 -2 -30 0 -30 33 0 32 2 35 30 35
27 0 30 -3 30 -33z m-809 -10 c66 -32 132 -93 160 -149 l21 -42 18 34 c34 65
89 118 158 152 60 29 76 33 152 33 71 0 93 -4 135 -25 l50 -25 3 -92 3 -92 42
-3 42 -3 3 -47 c3 -48 3 -48 39 -48 l36 0 -5 -74 c-8 -122 -38 -173 -229 -378
l-164 -178 -128 0 -129 0 26 31 c14 16 110 120 213 230 104 110 198 218 211
241 41 75 25 164 -39 225 -111 104 -281 22 -283 -135 0 -67 14 -96 82 -172
l50 -56 -66 -68 -66 -68 -43 49 c-24 26 -56 66 -71 89 -15 22 -30 42 -34 45
-4 2 -19 -15 -35 -37 -15 -23 -98 -116 -183 -208 l-154 -166 -129 0 -129 0 48
53 c27 29 125 135 219 236 93 100 178 196 187 214 26 49 23 131 -7 183 -70
119 -233 115 -296 -8 -17 -33 -20 -54 -17 -103 4 -65 6 -70 92 -170 l34 -40
-65 -69 -64 -70 -54 60 c-151 166 -174 354 -64 526 38 59 93 103 167 135 78
32 185 29 263 -10z m929 -7 c0 -15 -7 -20 -25 -20 -18 0 -25 5 -25 20 0 15 7
20 25 20 18 0 25 -5 25 -20z m150 -10 c0 -13 -7 -20 -20 -20 -13 0 -20 7 -20
20 0 13 7 20 20 20 13 0 20 -7 20 -20z m-60 -75 c0 -32 -2 -35 -30 -35 -28 0
-30 3 -30 35 0 32 2 35 30 35 28 0 30 -3 30 -35z m-158 -25 c-4 -38 -6 -40
-38 -40 -33 0 -34 1 -34 40 0 40 0 40 38 40 l38 0 -4 -40z m98 -105 l0 -45
-45 0 -46 0 3 45 3 45 43 0 42 0 0 -45z m110 -105 c0 -27 -3 -30 -30 -30 -27
0 -30 3 -30 30 0 27 3 30 30 30 27 0 30 -3 30 -30z m-1930 -855 c38 -20 50
-64 50 -183 0 -101 -15 -153 -48 -171 -21 -11 -322 -16 -322 -6 0 3 14 21 32
40 l31 35 114 0 113 0 0 35 0 35 -130 0 c-126 0 -132 1 -155 25 -44 43 -31
169 19 193 35 17 262 15 296 -3z m462 -13 c21 -21 23 -33 26 -157 l4 -135 -30
-30 -30 -30 -158 0 -158 0 39 40 38 39 111 3 111 3 3 33 3 32 -131 0 c-72 0
-140 5 -150 10 -43 23 -51 159 -12 193 28 24 42 26 179 24 123 -2 134 -4 155
-25z m446 -14 l3 -38 -73 0 -73 0 0 -147 0 -148 -40 0 -40 0 -3 148 -3 147
-63 0 c-58 0 -64 2 -69 23 -2 12 -8 30 -12 40 -7 16 4 17 181 15 l189 -3 3
-37z m402 38 c0 -2 -7 -20 -15 -40 l-15 -36 -154 0 -154 0 -4 35 c-2 20 -2 38
1 40 5 6 341 7 341 1z m367 -33 l-37 -38 -108 -5 -107 -5 0 -105 0 -105 100
-3 101 -3 44 -39 45 -39 -152 -1 -153 0 -32 29 -33 29 0 130 c0 116 2 132 20
152 31 35 51 39 205 39 l145 1 -38 -37z m433 -153 l0 -190 -40 0 -40 0 0 75 0
75 -110 0 -110 0 0 -70 c0 -38 -3 -70 -7 -70 -4 0 -22 14 -40 32 l-33 32 0
117 0 118 38 31 37 30 3 -70 3 -70 109 0 110 0 0 68 c0 38 3 72 7 75 3 4 21 7
40 7 l33 0 0 -190z m-830 0 l0 -40 -115 0 -115 0 0 -35 0 -35 115 0 c101 0
116 -2 121 -17 3 -10 10 -26 15 -35 5 -10 9 -20 9 -23 0 -3 -76 -5 -169 -5
l-170 0 -3 111 c-2 61 -1 113 1 115 2 2 73 4 158 4 l153 0 0 -40z"/>
<path d="M324 1036 c-3 -8 -4 -23 -2 -33 3 -16 17 -18 121 -21 l118 -3 -3 33
-3 33 -113 3 c-92 2 -113 0 -118 -12z"/>
<path d="M770 1015 l0 -35 121 0 120 0 -3 33 -3 32 -117 3 -118 3 0 -36z"/>
</g>
</svg>
